<svg xmlns="http://www.w3.org/2000/svg" xmlns:xlink="http://www.w3.org/1999/xlink" id="Capa_1" x="0" y="0" version="1.1" viewBox="0 0 512 512" xml:space="preserve" style="enable-background:new 0 0 512 512"><path style="fill:#4097ca" d="M256,0l-90,256l90,256c141.16,0,256-114.841,256-256S397.16,0,256,0z"/><path style="fill:#4bb4f5" d="M0,256c0,141.159,114.841,256,256,256V0C114.841,0,0,114.841,0,256z"/><path style="fill:#d2ecfd" d="M256,45l-21.531,16.148L256,75c99.804,0,181,81.196,181,181s-81.196,181-181,181l-21.531,13.852	L256,467c116.346,0,211-94.654,211-211S372.346,45,256,45z"/><path style="fill:#fff" d="M45,256c0,116.346,94.654,211,211,211v-30c-99.804,0-181-81.196-181-181S156.196,75,256,75V45	C139.654,45,45,139.654,45,256z"/><g><path style="fill:#d2ecfd" d="M303.853,218.255L350.884,181c-22.181-28.003-56.469-46-94.884-46l-20,30l20,30 C274.704,195,292.146,203.476,303.853,218.255z"/><path style="fill:#d2ecfd" d="M256,317l-20,30l20,30c38.415,0,72.703-17.997,94.884-46l-47.032-37.255 C292.146,308.524,274.704,317,256,317z"/></g><path style="fill:#fff" d="M195,256c0-33.636,27.364-61,61-61v-60c-66.72,0-121,54.28-121,121s54.28,121,121,121v-60	C222.364,317,195,289.636,195,256z"/></svg>